<?xml version="1.0" encoding="utf-8"?>
<!-- Generator: Adobe Illustrator 16.0.0, SVG Export Plug-In . SVG Version: 6.00 Build 0)  -->
<!DOCTYPE svg PUBLIC "-//W3C//DTD SVG 1.1//EN" "http://www.w3.org/Graphics/SVG/1.1/DTD/svg11.dtd">
<svg version="1.1" id="Layer_1" xmlns="http://www.w3.org/2000/svg" xmlns:xlink="http://www.w3.org/1999/xlink" x="0px" y="0px"
	 width="720px" height="720px" viewBox="0 0 720 720" enable-background="new 0 0 720 720" xml:space="preserve">
<g>
	<defs>
		<rect id="SVGID_1_" x="12.755" y="18.169" width="693.051" height="682.923"/>
	</defs>
	<clipPath id="SVGID_2_">
		<use xlink:href="#SVGID_1_"  overflow="visible"/>
	</clipPath>
	<path clip-path="url(#SVGID_2_)" d="M359.281,682.079c-101.821,0-192.933-45.985-253.037-117.973
		c0.377-4.804,0.513-9.095,0.513-10.587V203.48h0.574l273.303,357.327c4.804,5.848,5.206,5.959,5.351,5.959h7.486
		c4.606,0,9.213-2.305,9.213-7.489V364.115l196.895,191.138c2.143,2.134,6.625,6.479,11.33,10.529
		C550.786,636.8,460.312,682.079,359.281,682.079 M80.854,190.036v339.192c-31.101-49.305-49.087-107.416-49.087-169.6
		C31.767,297.449,49.753,239.337,80.854,190.036 M359.281,37.183c100.441,0,190.449,44.757,250.565,115.064
		c-4.524,3.542-9.042,7.703-11.42,9.781L402.684,344.53V165.484c0-4.032-3.46-7.484-7.484-7.484h-1.155h-10.36
		c-5.18,0-8.631,3.452-8.631,8.636v344.684L103.801,158.133C163.868,84.446,256.07,37.183,359.281,37.183 M628.01,543.725
		L429.165,353.747l196.11-182.021c38.693,52.941,61.513,117.845,61.513,187.903C686.788,428.022,665.042,491.494,628.01,543.725
		 M604.261,118.136c-65.447-64.46-152.443-99.967-244.979-99.967c-92.535,0-179.536,35.507-244.983,99.967
		C48.816,182.633,12.755,268.397,12.755,359.629c0,91.234,36.062,177,101.543,241.506c65.447,64.459,152.448,99.957,244.983,99.957
		c92.536,0,179.532-35.498,244.979-99.957c65.486-64.506,101.545-150.271,101.545-241.506
		C705.806,268.401,669.747,182.633,604.261,118.136"/>
</g>
</svg>
